G75*
%MOIN*%
%OFA0B0*%
%FSLAX24Y24*%
%IPPOS*%
%LPD*%
%AMOC8*
5,1,8,0,0,1.08239X$1,22.5*
%
%ADD10C,0.0050*%
%ADD11C,0.0040*%
%ADD12C,0.0060*%
%ADD13C,0.0010*%
%ADD14C,0.0080*%
D10*
X002247Y002562D02*
X003152Y002562D01*
X003113Y002837D02*
X002719Y002601D01*
X002247Y002837D01*
X003113Y002837D01*
D11*
X003290Y002697D02*
X003674Y002697D01*
X003751Y002774D01*
X003751Y002927D01*
X003674Y003004D01*
X003290Y003004D01*
X003367Y003157D02*
X003290Y003234D01*
X003290Y003387D01*
X003367Y003464D01*
X003520Y003387D02*
X003520Y003234D01*
X003444Y003157D01*
X003367Y003157D01*
X003213Y003311D02*
X003827Y003311D01*
X003751Y003387D02*
X003674Y003464D01*
X003597Y003464D01*
X003520Y003387D01*
X003751Y003387D02*
X003751Y003234D01*
X003674Y003157D01*
X003751Y003618D02*
X003751Y003924D01*
X003751Y003771D02*
X003290Y003771D01*
X003444Y003618D01*
D12*
X002184Y003690D02*
X001376Y003690D01*
X001380Y004670D02*
X002174Y004670D01*
X002161Y001343D02*
X001907Y001343D01*
X002161Y001343D02*
X002161Y001239D01*
X002161Y000731D02*
X002161Y000617D01*
X001907Y000617D01*
D13*
X001936Y000849D02*
X002009Y000849D01*
X002024Y000864D01*
X002024Y000893D01*
X002009Y000908D01*
X001936Y000908D01*
X001950Y000940D02*
X001936Y000954D01*
X001936Y000984D01*
X001950Y000999D01*
X001950Y001030D02*
X001936Y001045D01*
X001936Y001075D01*
X001950Y001089D01*
X001965Y001089D01*
X002024Y001030D01*
X002024Y001089D01*
X002009Y000999D02*
X001995Y000999D01*
X001980Y000984D01*
X001980Y000954D01*
X001965Y000940D01*
X001950Y000940D01*
X001921Y000969D02*
X002039Y000969D01*
X002024Y000954D02*
X002024Y000984D01*
X002009Y000999D01*
X002024Y000954D02*
X002009Y000940D01*
X002490Y003400D02*
X002490Y003550D01*
X002565Y003550D01*
X002590Y003525D01*
X002590Y003475D01*
X002565Y003450D01*
X002490Y003450D01*
X002540Y003450D02*
X002590Y003400D01*
X002638Y003400D02*
X002738Y003400D01*
X002688Y003400D02*
X002688Y003550D01*
X002638Y003500D01*
D14*
X000380Y001030D02*
X000380Y000530D01*
X000630Y000280D01*
X001130Y000280D01*
X001380Y000530D01*
X001380Y001030D01*
X001130Y001280D01*
X001380Y001530D01*
X001380Y002030D01*
X001130Y002280D01*
X001380Y002280D02*
X000380Y002280D01*
X000380Y003280D01*
X001380Y003280D01*
X001380Y002280D01*
X001640Y002249D02*
X001640Y002109D01*
X001640Y002179D02*
X001990Y002179D01*
X002060Y002109D01*
X002060Y002039D01*
X001990Y001969D01*
X002060Y002429D02*
X001640Y002429D01*
X001640Y002639D01*
X001710Y002709D01*
X001850Y002709D01*
X001920Y002639D01*
X001920Y002429D01*
X002060Y002890D02*
X002060Y003170D01*
X002060Y003030D02*
X001640Y003030D01*
X001780Y002890D01*
X000630Y002280D02*
X000380Y002030D01*
X000380Y001530D01*
X000630Y001280D01*
X000380Y001030D01*
M02*
