G75*
%MOIN*%
%OFA0B0*%
%FSLAX24Y24*%
%IPPOS*%
%LPD*%
%AMOC8*
5,1,8,0,0,1.08239X$1,22.5*
%
%ADD10C,0.0740*%
%ADD11C,0.0160*%
D10*
X000930Y000780D03*
X000830Y001780D03*
X000930Y002780D03*
D11*
X000420Y000420D02*
X004754Y000420D01*
X004690Y000447D01*
X004447Y000690D01*
X004315Y001008D01*
X004315Y001352D01*
X004447Y001670D01*
X004690Y001913D01*
X005008Y002045D01*
X005352Y002045D01*
X005670Y001913D01*
X005910Y001673D01*
X005910Y003687D01*
X005670Y003447D01*
X005352Y003315D01*
X005008Y003315D01*
X004690Y003447D01*
X004447Y003690D01*
X004315Y004008D01*
X004315Y004352D01*
X004447Y004670D01*
X004690Y004913D01*
X004745Y004936D01*
X000420Y004936D01*
X000420Y003133D01*
X000584Y003297D01*
X000809Y003390D01*
X001051Y003390D01*
X001276Y003297D01*
X001447Y003126D01*
X001540Y002901D01*
X001540Y002659D01*
X001447Y002434D01*
X001276Y002263D01*
X001229Y002244D01*
X001347Y002126D01*
X001440Y001901D01*
X001440Y001659D01*
X001347Y001434D01*
X001176Y001263D01*
X000951Y001170D01*
X000709Y001170D01*
X000484Y001263D01*
X000420Y001327D01*
X000420Y000420D01*
X000420Y000497D02*
X004640Y000497D01*
X004481Y000656D02*
X000420Y000656D01*
X000420Y000814D02*
X004395Y000814D01*
X004330Y000973D02*
X000420Y000973D01*
X000420Y001131D02*
X004315Y001131D01*
X004315Y001290D02*
X001202Y001290D01*
X001353Y001448D02*
X004355Y001448D01*
X004420Y001607D02*
X001418Y001607D01*
X001440Y001765D02*
X004542Y001765D01*
X004715Y001924D02*
X001431Y001924D01*
X001365Y002082D02*
X005910Y002082D01*
X005910Y001924D02*
X005645Y001924D01*
X005818Y001765D02*
X005910Y001765D01*
X005910Y002241D02*
X001232Y002241D01*
X001412Y002399D02*
X005910Y002399D01*
X005910Y002558D02*
X001498Y002558D01*
X001540Y002716D02*
X005910Y002716D01*
X005910Y002875D02*
X001540Y002875D01*
X001485Y003033D02*
X005910Y003033D01*
X005910Y003192D02*
X001381Y003192D01*
X001148Y003350D02*
X004923Y003350D01*
X004628Y003509D02*
X000420Y003509D01*
X000420Y003667D02*
X004470Y003667D01*
X004391Y003826D02*
X000420Y003826D01*
X000420Y003984D02*
X004325Y003984D01*
X004315Y004143D02*
X000420Y004143D01*
X000420Y004301D02*
X004315Y004301D01*
X004360Y004460D02*
X000420Y004460D01*
X000420Y004618D02*
X004425Y004618D01*
X004553Y004777D02*
X000420Y004777D01*
X000420Y004935D02*
X004742Y004935D01*
X005890Y003667D02*
X005910Y003667D01*
X005910Y003509D02*
X005732Y003509D01*
X005910Y003350D02*
X005437Y003350D01*
X000712Y003350D02*
X000420Y003350D01*
X000420Y003192D02*
X000479Y003192D01*
X000420Y001290D02*
X000458Y001290D01*
M02*
